<svg xmlns="http://www.w3.org/2000/svg" xmlns:xlink="http://www.w3.org/1999/xlink" viewBox="0 0 430 430" width="430" height="430" preserveAspectRatio="xMidYMid meet" style="width: 100%; height: 100%; transform: translate3d(0px, 0px, 0px); content-visibility: visible;"><defs><clipPath id="__lottie_element_1944"><rect width="430" height="430" x="0" y="0"/></clipPath><clipPath id="__lottie_element_1946"><path d="M0,0 L430,0 L430,430 L0,430z"/></clipPath><g id="__lottie_element_1956"><g transform="matrix(1,0.0000025038261810550466,-0.0000025038261810550466,1,214.9949951171875,180.0030059814453)" opacity="1" style="display: block;"><g opacity="1" transform="matrix(1,0,0,1,0,0)"><path fill="rgb(255,255,255)" fill-opacity="1" d=" M142.91799926757812,15.609000205993652 C152.35699462890625,7.3460001945495605 152.35699462890625,-7.340000152587891 142.91799926757812,-15.602999687194824 C142.91799926757812,-15.602999687194824 128.29200744628906,-28.408000946044922 128.29200744628906,-28.408000946044922 C125.12999725341797,-31.176000595092773 123.94999694824219,-35.58000183105469 125.30699920654297,-39.55799865722656 C125.30699920654297,-39.55799865722656 131.5709991455078,-57.926998138427734 131.5709991455078,-57.926998138427734 C135.625,-69.81500244140625 128.26699829101562,-82.55000305175781 115.94300079345703,-84.9739990234375 C115.94300079345703,-84.9739990234375 96.89700317382812,-88.72100067138672 96.89700317382812,-88.72100067138672 C92.76599884033203,-89.53399658203125 89.53700256347656,-92.76300048828125 88.7239990234375,-96.89399719238281 C88.7239990234375,-96.89399719238281 84.97699737548828,-115.94000244140625 84.97699737548828,-115.94000244140625 C82.5530014038086,-128.26400756835938 69.81800079345703,-135.6219940185547 57.93000030517578,-131.5679931640625 C57.93000030517578,-131.5679931640625 39.5620002746582,-125.30400085449219 39.5620002746582,-125.30400085449219 C35.58300018310547,-123.9469985961914 31.179000854492188,-125.12699890136719 28.410999298095703,-128.2899932861328 C28.410999298095703,-128.2899932861328 15.607999801635742,-142.91799926757812 15.607999801635742,-142.91799926757812 C7.343999862670898,-152.36000061035156 -7.343999862670898,-152.36000061035156 -15.607999801635742,-142.91799926757812 C-15.607999801635742,-142.91799926757812 -28.410999298095703,-128.2899932861328 -28.410999298095703,-128.2899932861328 C-31.179000854492188,-125.12699890136719 -35.58300018310547,-123.9469985961914 -39.5620002746582,-125.30400085449219 C-39.5620002746582,-125.30400085449219 -57.93000030517578,-131.5679931640625 -57.93000030517578,-131.5679931640625 C-69.81800079345703,-135.6219940185547 -82.5530014038086,-128.26400756835938 -84.97699737548828,-115.94000244140625 C-84.97699737548828,-115.94000244140625 -88.7239990234375,-96.89399719238281 -88.7239990234375,-96.89399719238281 C-89.53700256347656,-92.76300048828125 -92.76599884033203,-89.53399658203125 -96.89700317382812,-88.72100067138672 C-96.89700317382812,-88.72100067138672 -115.94300079345703,-84.9739990234375 -115.94300079345703,-84.9739990234375 C-128.26699829101562,-82.55000305175781 -135.625,-69.81500244140625 -131.5709991455078,-57.926998138427734 C-131.5709991455078,-57.926998138427734 -125.30699920654297,-39.55799865722656 -125.30699920654297,-39.55799865722656 C-123.94999694824219,-35.58000183105469 -125.12999725341797,-31.176000595092773 -128.29200744628906,-28.408000946044922 C-128.29200744628906,-28.408000946044922 -142.91799926757812,-15.602999687194824 -142.91799926757812,-15.602999687194824 C-152.35699462890625,-7.340000152587891 -152.35699462890625,7.3460001945495605 -142.91799926757812,15.609000205993652 C-142.91799926757812,15.609000205993652 -128.29200744628906,28.413999557495117 -128.29200744628906,28.413999557495117 C-125.12999725341797,31.18199920654297 -123.94999694824219,35.58599853515625 -125.30699920654297,39.56399917602539 C-125.30699920654297,39.56399917602539 -131.5709991455078,57.93299865722656 -131.5709991455078,57.93299865722656 C-135.625,69.82099914550781 -128.26699829101562,82.55599975585938 -115.94300079345703,84.9800033569336 C-115.94300079345703,84.9800033569336 -96.89700317382812,88.72699737548828 -96.89700317382812,88.72699737548828 C-92.76599884033203,89.54000091552734 -89.53600311279297,92.76899719238281 -88.7229995727539,96.9000015258789 C-88.7229995727539,96.9000015258789 -84.97699737548828,115.94100189208984 -84.97699737548828,115.94100189208984 C-82.552001953125,128.26199340820312 -69.82099914550781,135.61900329589844 -57.935001373291016,131.56900024414062 C-57.935001373291016,131.56900024414062 -39.560001373291016,125.30799865722656 -39.560001373291016,125.30799865722656 C-35.582000732421875,123.9530029296875 -31.18000030517578,125.13099670410156 -28.41200065612793,128.29299926757812 C-28.41200065612793,128.29299926757812 -15.605999946594238,142.92100524902344 -15.605999946594238,142.92100524902344 C-7.3429999351501465,152.36000061035156 7.3429999351501465,152.36000061035156 15.605999946594238,142.92100524902344 C15.605999946594238,142.92100524902344 28.410999298095703,128.2949981689453 28.410999298095703,128.2949981689453 C31.179000854492188,125.13300323486328 35.58300018310547,123.9530029296875 39.56100082397461,125.30999755859375 C39.56100082397461,125.30999755859375 57.93000030517578,131.57400512695312 57.93000030517578,131.57400512695312 C69.81800079345703,135.6280059814453 82.5530014038086,128.27000427246094 84.97699737548828,115.94599914550781 C84.97699737548828,115.94599914550781 88.7239990234375,96.9000015258789 88.7239990234375,96.9000015258789 C89.53700256347656,92.76899719238281 92.76599884033203,89.54000091552734 96.89700317382812,88.72699737548828 C96.89700317382812,88.72699737548828 115.94300079345703,84.9800033569336 115.94300079345703,84.9800033569336 C128.26699829101562,82.55599975585938 135.625,69.82099914550781 131.5709991455078,57.93299865722656 C131.5709991455078,57.93299865722656 125.30699920654297,39.56399917602539 125.30699920654297,39.56399917602539 C123.94999694824219,35.58599853515625 125.12999725341797,31.183000564575195 128.29200744628906,28.413999557495117 C128.29200744628906,28.413999557495117 142.91799926757812,15.609000205993652 142.91799926757812,15.609000205993652z"/></g></g></g><g id="__lottie_element_1962"><g transform="matrix(1,0.0000025038261810550466,-0.0000025038261810550466,1,214.9949951171875,180.0030059814453)" opacity="1" style="display: block;"><g opacity="1" transform="matrix(1,0,0,1,0,0)"><path fill="rgb(255,255,255)" fill-opacity="1" d=" M142.91799926757812,15.609000205993652 C152.35699462890625,7.3460001945495605 152.35699462890625,-7.340000152587891 142.91799926757812,-15.602999687194824 C142.91799926757812,-15.602999687194824 128.29200744628906,-28.408000946044922 128.29200744628906,-28.408000946044922 C125.12999725341797,-31.176000595092773 123.94999694824219,-35.58000183105469 125.30699920654297,-39.55799865722656 C125.30699920654297,-39.55799865722656 131.5709991455078,-57.926998138427734 131.5709991455078,-57.926998138427734 C135.625,-69.81500244140625 128.26699829101562,-82.55000305175781 115.94300079345703,-84.9739990234375 C115.94300079345703,-84.9739990234375 96.89700317382812,-88.72100067138672 96.89700317382812,-88.72100067138672 C92.76599884033203,-89.53399658203125 89.53700256347656,-92.76300048828125 88.7239990234375,-96.89399719238281 C88.7239990234375,-96.89399719238281 84.97699737548828,-115.94000244140625 84.97699737548828,-115.94000244140625 C82.5530014038086,-128.26400756835938 69.81800079345703,-135.6219940185547 57.93000030517578,-131.5679931640625 C57.93000030517578,-131.5679931640625 39.5620002746582,-125.30400085449219 39.5620002746582,-125.30400085449219 C35.58300018310547,-123.9469985961914 31.179000854492188,-125.12699890136719 28.410999298095703,-128.2899932861328 C28.410999298095703,-128.2899932861328 15.607999801635742,-142.91799926757812 15.607999801635742,-142.91799926757812 C7.343999862670898,-152.36000061035156 -7.343999862670898,-152.36000061035156 -15.607999801635742,-142.91799926757812 C-15.607999801635742,-142.91799926757812 -28.410999298095703,-128.2899932861328 -28.410999298095703,-128.2899932861328 C-31.179000854492188,-125.12699890136719 -35.58300018310547,-123.9469985961914 -39.5620002746582,-125.30400085449219 C-39.5620002746582,-125.30400085449219 -57.93000030517578,-131.5679931640625 -57.93000030517578,-131.5679931640625 C-69.81800079345703,-135.6219940185547 -82.5530014038086,-128.26400756835938 -84.97699737548828,-115.94000244140625 C-84.97699737548828,-115.94000244140625 -88.7239990234375,-96.89399719238281 -88.7239990234375,-96.89399719238281 C-89.53700256347656,-92.76300048828125 -92.76599884033203,-89.53399658203125 -96.89700317382812,-88.72100067138672 C-96.89700317382812,-88.72100067138672 -115.94300079345703,-84.9739990234375 -115.94300079345703,-84.9739990234375 C-128.26699829101562,-82.55000305175781 -135.625,-69.81500244140625 -131.5709991455078,-57.926998138427734 C-131.5709991455078,-57.926998138427734 -125.30699920654297,-39.55799865722656 -125.30699920654297,-39.55799865722656 C-123.94999694824219,-35.58000183105469 -125.12999725341797,-31.176000595092773 -128.29200744628906,-28.408000946044922 C-128.29200744628906,-28.408000946044922 -142.91799926757812,-15.602999687194824 -142.91799926757812,-15.602999687194824 C-152.35699462890625,-7.340000152587891 -152.35699462890625,7.3460001945495605 -142.91799926757812,15.609000205993652 C-142.91799926757812,15.609000205993652 -128.29200744628906,28.413999557495117 -128.29200744628906,28.413999557495117 C-125.12999725341797,31.18199920654297 -123.94999694824219,35.58599853515625 -125.30699920654297,39.56399917602539 C-125.30699920654297,39.56399917602539 -131.5709991455078,57.93299865722656 -131.5709991455078,57.93299865722656 C-135.625,69.82099914550781 -128.26699829101562,82.55599975585938 -115.94300079345703,84.9800033569336 C-115.94300079345703,84.9800033569336 -96.89700317382812,88.72699737548828 -96.89700317382812,88.72699737548828 C-92.76599884033203,89.54000091552734 -89.53600311279297,92.76899719238281 -88.7229995727539,96.9000015258789 C-88.7229995727539,96.9000015258789 -84.97699737548828,115.94100189208984 -84.97699737548828,115.94100189208984 C-82.552001953125,128.26199340820312 -69.82099914550781,135.61900329589844 -57.935001373291016,131.56900024414062 C-57.935001373291016,131.56900024414062 -39.560001373291016,125.30799865722656 -39.560001373291016,125.30799865722656 C-35.582000732421875,123.9530029296875 -31.18000030517578,125.13099670410156 -28.41200065612793,128.29299926757812 C-28.41200065612793,128.29299926757812 -15.605999946594238,142.92100524902344 -15.605999946594238,142.92100524902344 C-7.3429999351501465,152.36000061035156 7.3429999351501465,152.36000061035156 15.605999946594238,142.92100524902344 C15.605999946594238,142.92100524902344 28.410999298095703,128.2949981689453 28.410999298095703,128.2949981689453 C31.179000854492188,125.13300323486328 35.58300018310547,123.9530029296875 39.56100082397461,125.30999755859375 C39.56100082397461,125.30999755859375 57.93000030517578,131.57400512695312 57.93000030517578,131.57400512695312 C69.81800079345703,135.6280059814453 82.5530014038086,128.27000427246094 84.97699737548828,115.94599914550781 C84.97699737548828,115.94599914550781 88.7239990234375,96.9000015258789 88.7239990234375,96.9000015258789 C89.53700256347656,92.76899719238281 92.76599884033203,89.54000091552734 96.89700317382812,88.72699737548828 C96.89700317382812,88.72699737548828 115.94300079345703,84.9800033569336 115.94300079345703,84.9800033569336 C128.26699829101562,82.55599975585938 135.625,69.82099914550781 131.5709991455078,57.93299865722656 C131.5709991455078,57.93299865722656 125.30699920654297,39.56399917602539 125.30699920654297,39.56399917602539 C123.94999694824219,35.58599853515625 125.12999725341797,31.183000564575195 128.29200744628906,28.413999557495117 C128.29200744628906,28.413999557495117 142.91799926757812,15.609000205993652 142.91799926757812,15.609000205993652z"/></g></g></g><filter id="__lottie_element_1968" filterUnits="objectBoundingBox" x="0%" y="0%" width="100%" height="100%"><feComponentTransfer in="SourceGraphic"><feFuncA type="table" tableValues="1.0 0.0"/></feComponentTransfer></filter><mask id="__lottie_element_1962_2" mask-type="alpha"><g filter="url(#__lottie_element_1968)"><rect width="430" height="430" x="0" y="0" fill="#ffffff" opacity="0"/><use xmlns:ns1="http://www.w3.org/1999/xlink" ns1:href="#__lottie_element_1962"/></g></mask><filter id="__lottie_element_1969" filterUnits="objectBoundingBox" x="0%" y="0%" width="100%" height="100%"><feComponentTransfer in="SourceGraphic"><feFuncA type="table" tableValues="1.0 0.0"/></feComponentTransfer></filter><mask id="__lottie_element_1956_2" mask-type="alpha"><g filter="url(#__lottie_element_1969)"><rect width="430" height="430" x="0" y="0" fill="#ffffff" opacity="0"/><use xmlns:ns2="http://www.w3.org/1999/xlink" ns2:href="#__lottie_element_1956"/></g></mask></defs><g clip-path="url(#__lottie_element_1944)"><g clip-path="url(#__lottie_element_1946)" transform="matrix(1,0,0,1,0,0)" opacity="1" style="display: block;"><g mask="url(#__lottie_element_1956_2)" style="display: block;"><g transform="matrix(1,0.0000025038261810550466,-0.0000025038261810550466,1,277.2766418457031,315.00018310546875)" opacity="1"><g opacity="1" transform="matrix(1,0,0,1,0,0)"><path stroke-linecap="round" stroke-linejoin="round" fill-opacity="0" class="secondary" stroke="rgb(8,168,138)" stroke-opacity="1" stroke-width="12" d=" M-72.2770004272461,-46.10200119018555 C-51.900001525878906,-2.4010000228881836 -11.145999908447266,85 -11.145999908447266,85 C-11.145999908447266,85 13.895999908447266,29.79199981689453 13.895999908447266,29.79199981689453 C13.895999908447266,29.79199981689453 72.2770004272461,46.09199905395508 72.2770004272461,46.09199905395508 C72.2770004272461,46.09199905395508 31.523000717163086,-41.303001403808594 11.145999908447266,-85"/></g></g></g><g mask="url(#__lottie_element_1962_2)" style="display: block;"><g transform="matrix(1,0.00000583594010095112,-0.00000583594010095112,1,152.2764129638672,314.9997253417969)" opacity="1"><g opacity="1" transform="matrix(1,0,0,1,0,0)"><path stroke-linecap="round" stroke-linejoin="round" fill-opacity="0" class="secondary" stroke="rgb(8,168,138)" stroke-opacity="1" stroke-width="12" d=" M72.2770004272461,-46.09199905395508 C51.900001525878906,-2.3949999809265137 11.145999908447266,85 11.145999908447266,85 C11.145999908447266,85 -13.895999908447266,29.79199981689453 -13.895999908447266,29.79199981689453 C-13.895999908447266,29.79199981689453 -72.2770004272461,46.10200119018555 -72.2770004272461,46.10200119018555 C-72.2770004272461,46.10200119018555 -31.523000717163086,-41.29899978637695 -11.145999908447266,-85"/></g></g></g><g transform="matrix(1,0.0000025038261810550466,-0.0000025038261810550466,1,214.9949951171875,180.0030059814453)" opacity="1" style="display: block;"><g opacity="1" transform="matrix(1,0,0,1,0,0)"><path stroke-linecap="round" stroke-linejoin="round" fill-opacity="0" class="primary" stroke="rgb(17,9,92)" stroke-opacity="1" stroke-width="12" d=" M142.91799926757812,15.609000205993652 C152.35699462890625,7.3460001945495605 152.35699462890625,-7.340000152587891 142.91799926757812,-15.602999687194824 C142.91799926757812,-15.602999687194824 128.29200744628906,-28.408000946044922 128.29200744628906,-28.408000946044922 C125.12999725341797,-31.176000595092773 123.94999694824219,-35.58000183105469 125.30699920654297,-39.55799865722656 C125.30699920654297,-39.55799865722656 131.5709991455078,-57.926998138427734 131.5709991455078,-57.926998138427734 C135.625,-69.81500244140625 128.26699829101562,-82.55000305175781 115.94300079345703,-84.9739990234375 C115.94300079345703,-84.9739990234375 96.89700317382812,-88.72100067138672 96.89700317382812,-88.72100067138672 C92.76599884033203,-89.53399658203125 89.53700256347656,-92.76300048828125 88.7239990234375,-96.89399719238281 C88.7239990234375,-96.89399719238281 84.97699737548828,-115.94000244140625 84.97699737548828,-115.94000244140625 C82.5530014038086,-128.26400756835938 69.81800079345703,-135.6219940185547 57.93000030517578,-131.5679931640625 C57.93000030517578,-131.5679931640625 39.5620002746582,-125.30400085449219 39.5620002746582,-125.30400085449219 C35.58300018310547,-123.9469985961914 31.179000854492188,-125.12699890136719 28.410999298095703,-128.2899932861328 C28.410999298095703,-128.2899932861328 15.607999801635742,-142.91799926757812 15.607999801635742,-142.91799926757812 C7.343999862670898,-152.36000061035156 -7.343999862670898,-152.36000061035156 -15.607999801635742,-142.91799926757812 C-15.607999801635742,-142.91799926757812 -28.410999298095703,-128.2899932861328 -28.410999298095703,-128.2899932861328 C-31.179000854492188,-125.12699890136719 -35.58300018310547,-123.9469985961914 -39.5620002746582,-125.30400085449219 C-39.5620002746582,-125.30400085449219 -57.93000030517578,-131.5679931640625 -57.93000030517578,-131.5679931640625 C-69.81800079345703,-135.6219940185547 -82.5530014038086,-128.26400756835938 -84.97699737548828,-115.94000244140625 C-84.97699737548828,-115.94000244140625 -88.7239990234375,-96.89399719238281 -88.7239990234375,-96.89399719238281 C-89.53700256347656,-92.76300048828125 -92.76599884033203,-89.53399658203125 -96.89700317382812,-88.72100067138672 C-96.89700317382812,-88.72100067138672 -115.94300079345703,-84.9739990234375 -115.94300079345703,-84.9739990234375 C-128.26699829101562,-82.55000305175781 -135.625,-69.81500244140625 -131.5709991455078,-57.926998138427734 C-131.5709991455078,-57.926998138427734 -125.30699920654297,-39.55799865722656 -125.30699920654297,-39.55799865722656 C-123.94999694824219,-35.58000183105469 -125.12999725341797,-31.176000595092773 -128.29200744628906,-28.408000946044922 C-128.29200744628906,-28.408000946044922 -142.91799926757812,-15.602999687194824 -142.91799926757812,-15.602999687194824 C-152.35699462890625,-7.340000152587891 -152.35699462890625,7.3460001945495605 -142.91799926757812,15.609000205993652 C-142.91799926757812,15.609000205993652 -128.29200744628906,28.413999557495117 -128.29200744628906,28.413999557495117 C-125.12999725341797,31.18199920654297 -123.94999694824219,35.58599853515625 -125.30699920654297,39.56399917602539 C-125.30699920654297,39.56399917602539 -131.5709991455078,57.93299865722656 -131.5709991455078,57.93299865722656 C-135.625,69.82099914550781 -128.26699829101562,82.55599975585938 -115.94300079345703,84.9800033569336 C-115.94300079345703,84.9800033569336 -96.89700317382812,88.72699737548828 -96.89700317382812,88.72699737548828 C-92.76599884033203,89.54000091552734 -89.53600311279297,92.76899719238281 -88.7229995727539,96.9000015258789 C-88.7229995727539,96.9000015258789 -84.97699737548828,115.94100189208984 -84.97699737548828,115.94100189208984 C-82.552001953125,128.26199340820312 -69.82099914550781,135.61900329589844 -57.935001373291016,131.56900024414062 C-57.935001373291016,131.56900024414062 -39.560001373291016,125.30799865722656 -39.560001373291016,125.30799865722656 C-35.582000732421875,123.9530029296875 -31.18000030517578,125.13099670410156 -28.41200065612793,128.29299926757812 C-28.41200065612793,128.29299926757812 -15.605999946594238,142.92100524902344 -15.605999946594238,142.92100524902344 C-7.3429999351501465,152.36000061035156 7.3429999351501465,152.36000061035156 15.605999946594238,142.92100524902344 C15.605999946594238,142.92100524902344 28.410999298095703,128.2949981689453 28.410999298095703,128.2949981689453 C31.179000854492188,125.13300323486328 35.58300018310547,123.9530029296875 39.56100082397461,125.30999755859375 C39.56100082397461,125.30999755859375 57.93000030517578,131.57400512695312 57.93000030517578,131.57400512695312 C69.81800079345703,135.6280059814453 82.5530014038086,128.27000427246094 84.97699737548828,115.94599914550781 C84.97699737548828,115.94599914550781 88.7239990234375,96.9000015258789 88.7239990234375,96.9000015258789 C89.53700256347656,92.76899719238281 92.76599884033203,89.54000091552734 96.89700317382812,88.72699737548828 C96.89700317382812,88.72699737548828 115.94300079345703,84.9800033569336 115.94300079345703,84.9800033569336 C128.26699829101562,82.55599975585938 135.625,69.82099914550781 131.5709991455078,57.93299865722656 C131.5709991455078,57.93299865722656 125.30699920654297,39.56399917602539 125.30699920654297,39.56399917602539 C123.94999694824219,35.58599853515625 125.12999725341797,31.183000564575195 128.29200744628906,28.413999557495117 C128.29200744628906,28.413999557495117 142.91799926757812,15.609000205993652 142.91799926757812,15.609000205993652z"/></g></g><g transform="matrix(1,0.0000025038261810550466,-0.0000025038261810550466,1,215,180)" opacity="1" style="display: block;"><g opacity="1" transform="matrix(1,0,0,1,0,-3)"><path stroke-linecap="round" stroke-linejoin="round" fill-opacity="0" class="secondary" stroke="rgb(8,168,138)" stroke-opacity="1" stroke-width="12" d=" M-15.446999549865723,-16.166000366210938 C-15.446999549865723,-16.166000366210938 0,-47.3120002746582 0,-47.3120002746582 C0,-47.3120002746582 15.446999549865723,-16.166000366210938 15.446999549865723,-16.166000366210938 C15.446999549865723,-16.166000366210938 50,-11.168000221252441 50,-11.168000221252441 C50,-11.168000221252441 24.993999481201172,13.079000473022461 24.993999481201172,13.079000473022461 C24.993999481201172,13.079000473022461 30.905000686645508,47.3120002746582 30.905000686645508,47.3120002746582 C30.905000686645508,47.3120002746582 0,31.150999069213867 0,31.150999069213867 C0,31.150999069213867 -30.905000686645508,47.3120002746582 -30.905000686645508,47.3120002746582 C-30.905000686645508,47.3120002746582 -24.993999481201172,13.079000473022461 -24.993999481201172,13.079000473022461 C-24.993999481201172,13.079000473022461 -50,-11.168000221252441 -50,-11.168000221252441 C-50,-11.168000221252441 -15.446999549865723,-16.166000366210938 -15.446999549865723,-16.166000366210938z"/></g><g opacity="1" transform="matrix(1,0,0,1,0,0)"><path stroke-linecap="round" stroke-linejoin="round" fill-opacity="0" class="primary" stroke="rgb(17,9,92)" stroke-opacity="1" stroke-width="12" d=" M0,100 C55.22800064086914,100 100,55.22800064086914 100,0 C100,-55.22800064086914 55.22800064086914,-100 0,-100 C-55.22800064086914,-100 -100,-55.22800064086914 -100,0 C-100,55.22800064086914 -55.22800064086914,100 0,100z"/></g></g></g></g></svg>